<?xml version="1.0" standalone="no"?>
<!DOCTYPE svg PUBLIC "-//W3C//DTD SVG 20010904//EN"
 "http://www.w3.org/TR/2001/REC-SVG-20010904/DTD/svg10.dtd">
<svg version="1.0" xmlns="http://www.w3.org/2000/svg"
 width="512.000000pt" height="512.000000pt" viewBox="0 0 512.000000 512.000000"
 preserveAspectRatio="xMidYMid meet">
<metadata>
Created by potrace 1.11, written by Peter Selinger 2001-2013
</metadata>
<g transform="translate(0.000000,512.000000) scale(0.100000,-0.100000)"
fill="#000000" stroke="none">
<path d="M3425 5033 c-170 -27 -287 -74 -405 -163 -77 -57 -537 -517 -610
-609 -271 -340 -350 -717 -228 -1088 l30 -93 -76 -75 -77 -76 -481 481 -481
481 90 89 c101 100 118 130 109 193 -9 58 -30 77 -231 209 -648 425 -587 386
-622 393 -66 12 -87 -1 -239 -154 -159 -158 -170 -172 -178 -215 -8 -46 15
-94 126 -262 58 -87 171 -259 251 -381 141 -216 169 -248 218 -259 63 -12 96
5 188 97 l89 89 481 -481 481 -480 -715 -714 c-396 -397 -730 -738 -749 -767
-160 -244 -79 -606 181 -810 78 -61 92 -70 153 -99 87 -41 178 -58 285 -55
108 4 180 24 265 77 24 15 288 272 586 570 l542 542 329 -333 c892 -903 903
-914 975 -949 147 -70 302 -74 469 -10 190 73 364 257 420 443 27 90 28 97 30
180 2 129 -20 206 -87 306 -27 40 -226 249 -509 535 -255 258 -463 470 -462
471 1 1 40 4 87 8 168 11 292 48 448 132 144 78 226 146 494 412 268 266 323
331 382 448 62 124 81 209 81 369 0 136 -3 165 -26 270 -31 142 -132 419 -167
458 -41 46 -97 58 -155 33 -18 -7 -140 -121 -272 -253 -132 -131 -265 -257
-295 -280 -142 -104 -244 -96 -369 29 -115 116 -133 199 -69 321 26 49 86 117
293 325 143 145 265 273 271 285 27 51 17 121 -24 159 -49 47 -338 150 -517
184 -73 15 -262 25 -310 17z"/>
</g>
</svg>
