<?xml version="1.0" standalone="no"?>
<!DOCTYPE svg PUBLIC "-//W3C//DTD SVG 20010904//EN"
 "http://www.w3.org/TR/2001/REC-SVG-20010904/DTD/svg10.dtd">
<svg version="1.0" xmlns="http://www.w3.org/2000/svg"
 width="1506.000000pt" height="1506.000000pt" viewBox="0 0 1506.000000 1506.000000"
 preserveAspectRatio="xMidYMid meet">
<metadata>
Created by potrace 1.11, written by Peter Selinger 2001-2013
</metadata>
<g transform="translate(0.000000,1506.000000) scale(0.100000,-0.100000)"
fill="#000000" stroke="none">
<path d="M7175 15050 c-1677 -4 -2047 -8 -2080 -19 -102 -34 -169 -85 -222
-169 -22 -34 -170 -415 -413 -1060 -507 -1350 -489 -1302 -505 -1342 -12 -29
-105 -277 -190 -505 -13 -33 -63 -168 -113 -300 -50 -132 -144 -386 -210 -565
-66 -179 -137 -368 -157 -420 -20 -52 -45 -117 -54 -145 -10 -27 -99 -264
-198 -525 -99 -261 -197 -522 -218 -580 -21 -58 -53 -144 -71 -192 -19 -49
-34 -91 -34 -94 0 -3 -6 -20 -14 -37 -29 -63 -158 -408 -154 -412 2 -2 48 -18
103 -35 55 -18 194 -72 309 -122 182 -77 229 -102 316 -166 14 -11 24 -7 67
22 27 19 78 48 112 66 83 42 578 252 811 345 102 41 221 92 265 113 151 74
465 190 590 218 6 1 39 10 75 19 82 21 91 23 175 40 22 5 42 9 45 10 3 0 28 5
55 10 28 4 55 9 60 11 58 12 270 39 400 49 39 3 87 8 108 10 20 2 37 1 37 -3
0 -4 -72 -198 -161 -432 -88 -234 -196 -522 -240 -640 -45 -118 -86 -228 -94
-245 -15 -35 -139 -371 -221 -598 -48 -135 -55 -161 -43 -172 20 -19 251 -118
273 -117 10 1 33 7 50 15 17 8 54 25 81 37 28 12 64 28 80 35 156 70 727 305
740 305 3 0 56 24 118 54 218 104 529 216 762 272 90 21 157 36 185 40 19 3
38 8 41 10 4 2 29 6 58 10 l51 6 -5 -28 c-6 -33 -61 -322 -76 -400 -5 -28 -12
-61 -14 -75 -5 -24 -73 -358 -80 -391 -64 -294 -187 -705 -303 -1013 -172
-458 -262 -644 -477 -986 -5 -9 -21 -36 -35 -59 -36 -62 -38 -65 -114 -185
-175 -278 -202 -320 -211 -337 -30 -53 -173 -274 -267 -414 -59 -89 -108 -164
-108 -168 0 -6 -108 -161 -136 -195 -10 -12 -27 -32 -38 -44 -10 -12 -44 -56
-74 -97 -156 -211 -266 -327 -441 -468 -195 -157 -311 -217 -671 -350 -141
-52 -174 -59 -305 -68 -44 -3 -93 -7 -110 -9 -60 -9 -354 -19 -545 -19 -491 1
-668 43 -970 232 -213 134 -250 163 -360 289 -58 65 -137 152 -176 193 -39 41
-100 109 -135 150 -35 41 -66 77 -69 80 -4 3 -19 23 -36 45 -16 22 -39 51 -51
65 -11 14 -41 51 -65 82 -284 372 -222 277 -703 1080 -164 274 -301 496 -305
493 -4 -2 -11 -33 -15 -67 -5 -35 -9 -65 -10 -68 -1 -3 -5 -30 -9 -60 -9 -57
-12 -78 -21 -120 -3 -14 -7 -43 -10 -65 -2 -22 -7 -51 -10 -65 -2 -13 -7 -42
-10 -65 -3 -22 -8 -47 -10 -55 -2 -8 -6 -33 -10 -55 -3 -22 -10 -65 -15 -95
-5 -30 -12 -75 -15 -100 -3 -25 -8 -56 -10 -70 -3 -14 -8 -36 -10 -50 -7 -35
-24 -139 -29 -180 -2 -19 -9 -64 -15 -100 -6 -36 -13 -85 -16 -110 -3 -25 -7
-52 -10 -60 -2 -8 -7 -44 -10 -80 -4 -36 -8 -67 -10 -70 -1 -3 -6 -30 -9 -61
-4 -31 -8 -65 -10 -76 -2 -10 -7 -46 -11 -78 -4 -33 -9 -69 -11 -80 -2 -11
-11 -72 -20 -135 -8 -63 -17 -126 -19 -140 -2 -14 -7 -45 -10 -70 -3 -25 -8
-56 -10 -70 -4 -22 -28 -204 -41 -300 -6 -46 -15 -109 -19 -140 -5 -34 -34
-256 -39 -300 -3 -19 -9 -71 -15 -115 -9 -76 -17 -165 -26 -285 -2 -30 -6 -94
-10 -143 -6 -80 -5 -87 12 -88 41 -2 124 -7 213 -13 52 -4 122 -9 155 -11 234
-15 338 -23 385 -30 19 -3 60 -8 90 -11 97 -10 134 -14 170 -19 19 -3 69 -7
110 -10 41 -3 91 -7 110 -9 19 -3 71 -8 114 -11 44 -4 93 -8 110 -10 17 -2 64
-7 105 -10 40 -3 88 -7 105 -10 17 -2 63 -7 101 -10 85 -7 165 -14 223 -21 24
-3 71 -7 105 -9 34 -3 76 -7 92 -10 17 -2 57 -7 90 -10 33 -3 74 -8 90 -10 17
-2 66 -6 110 -10 44 -3 103 -8 130 -10 28 -3 82 -7 120 -11 39 -3 71 -6 72 -7
1 -1 -2 -22 -7 -47 -4 -25 -11 -70 -14 -101 -4 -31 -8 -65 -10 -76 -3 -11 -7
-46 -10 -78 -4 -32 -8 -61 -10 -64 -2 -3 -6 -33 -10 -66 -3 -33 -8 -69 -10
-80 -2 -11 -7 -45 -10 -75 -4 -30 -8 -66 -11 -80 -2 -14 -6 -45 -9 -70 -3 -25
-7 -61 -10 -80 -34 -240 -39 -307 -24 -307 18 0 196 -14 238 -18 19 -2 73 -7
120 -11 47 -4 92 -8 100 -9 14 -1 95 -11 165 -20 17 -2 68 -7 115 -11 47 -3
94 -8 105 -10 11 -2 58 -6 105 -9 47 -3 101 -8 120 -10 69 -8 136 -15 192 -20
92 -8 169 -15 218 -20 25 -2 74 -7 110 -10 104 -9 184 -17 200 -20 8 -1 51 -6
94 -10 43 -4 88 -8 99 -11 12 -2 50 -6 86 -9 36 -3 93 -7 126 -10 107 -8 199
-16 235 -20 19 -2 69 -6 110 -10 41 -4 91 -9 110 -11 43 -5 477 -4 700 1 91 2
302 6 470 10 424 8 598 13 650 19 63 7 151 14 370 31 41 3 86 8 100 10 14 2
50 7 80 10 30 4 118 20 195 35 77 16 169 31 205 35 98 10 107 11 213 34 54 12
114 24 135 27 98 15 538 134 628 170 61 24 373 131 406 139 38 9 337 147 378
175 25 17 77 37 119 45 13 2 75 35 139 74 126 74 237 131 259 131 7 0 13 5 13
10 0 6 6 10 13 10 18 0 249 140 392 237 122 84 380 282 481 368 30 27 67 57
82 69 61 47 116 99 301 286 227 229 304 319 431 501 51 74 114 161 140 194
211 268 416 647 662 1219 119 279 248 615 248 648 0 5 7 25 15 45 18 46 132
441 149 518 2 6 8 28 14 50 13 50 19 88 27 190 4 44 8 96 10 115 9 96 18 277
18 375 0 138 -9 224 -39 400 -34 194 -32 181 -65 302 -16 59 -31 115 -33 123
-11 44 -92 244 -132 328 -180 373 -572 827 -969 1123 -245 182 -490 316 -789
429 l-99 38 -41 103 c-67 167 -210 435 -238 447 -5 2 -8 8 -8 13 0 17 -193
277 -270 364 -166 186 -311 331 -440 439 -47 39 -87 73 -90 76 -22 23 -187
142 -281 203 -382 252 -780 416 -1218 503 -41 8 -88 17 -105 19 -17 3 -42 7
-56 10 -49 9 -208 26 -275 30 -57 3 -164 14 -192 19 -10 2 -54 7 -98 11 -44 4
-93 8 -110 10 -121 14 -525 20 -768 11 -64 -2 -68 -1 -63 19 3 11 6 23 6 26 0
16 60 28 120 24 71 -4 588 -12 1370 -20 272 -3 711 -7 975 -10 264 -3 723 -7
1020 -10 297 -3 740 -8 985 -10 764 -8 1545 -9 1557 -2 6 4 96 148 199 320
104 171 231 383 284 470 324 536 583 965 635 1052 19 33 45 77 58 97 62 102
117 202 117 214 0 8 -10 16 -22 19 -33 8 -1220 11 -2336 6 l-524 -3 13 24 c6
12 25 42 40 65 16 23 29 44 29 47 0 3 20 37 45 76 25 39 45 72 45 74 0 3 33
58 73 123 186 300 713 1183 819 1373 24 42 123 213 149 255 l18 30 -1912 0
c-1052 0 -2830 -2 -3952 -5z m-1130 -2845 c711 -8 1096 -13 1112 -14 7 -1 -1
-33 -22 -88 -19 -49 -124 -329 -235 -623 -110 -294 -204 -542 -207 -550 -3 -8
-7 -17 -8 -20 0 -3 -16 -44 -34 -92 -31 -81 -36 -88 -62 -89 -16 -1 -32 -2
-36 -3 -5 -1 -33 -6 -63 -10 -30 -5 -62 -10 -70 -11 -54 -10 -108 -18 -125
-20 -43 -5 -196 -38 -330 -72 -77 -19 -149 -36 -160 -39 -11 -3 -30 -7 -43
-10 -33 -7 -310 -81 -447 -119 -66 -19 -263 -82 -438 -140 -175 -59 -320 -105
-322 -103 -4 3 120 323 165 428 10 25 94 241 185 480 91 239 170 444 175 455
6 11 28 67 49 125 22 58 74 193 116 300 42 107 77 200 78 205 2 11 58 22 97
18 14 -1 295 -5 625 -8z m860 -2939 c119 -11 254 -44 329 -82 28 -14 84 -51
125 -81 200 -150 303 -304 337 -499 3 -16 11 -61 19 -101 8 -40 15 -79 15 -86
0 -9 -24 -21 -62 -32 -35 -9 -232 -73 -438 -142 -654 -218 -944 -304 -960
-286 -9 10 318 882 400 1068 9 18 65 164 89 227 9 24 14 27 48 23 21 -2 65 -6
98 -9z m2229 -6613 c-10 -16 -36 -57 -57 -93 -22 -36 -49 -78 -61 -95 -11 -16
-25 -37 -31 -47 -42 -72 -113 -184 -204 -322 -59 -88 -128 -195 -154 -236 -26
-41 -72 -106 -102 -145 -30 -38 -109 -141 -175 -227 -111 -144 -266 -313 -365
-399 -69 -59 -178 -144 -230 -180 -27 -19 -51 -37 -53 -41 -2 -5 -8 -8 -14 -8
-5 0 -22 -9 -38 -20 -89 -63 -402 -197 -679 -290 -50 -17 -144 -30 -326 -45
-317 -26 -883 -26 -1065 0 -94 14 -172 29 -240 47 -91 23 -315 121 -390 169
-30 20 -98 62 -150 95 -163 101 -241 166 -340 280 -52 60 -129 145 -171 189
-43 44 -76 81 -75 83 4 3 136 6 631 16 242 5 437 14 474 21 9 1 59 6 111 10
52 3 111 8 130 10 19 2 73 6 119 10 46 4 91 8 100 10 9 1 38 6 66 9 42 6 201
36 270 52 33 7 77 13 140 19 33 3 67 7 75 10 8 3 31 7 50 9 196 27 711 158
920 236 58 21 182 64 275 95 96 33 253 97 360 147 105 49 213 98 241 108 62
22 98 40 194 98 41 25 115 65 165 89 175 85 358 192 515 301 47 33 89 60 94
61 4 1 0 -11 -10 -26z"/>
</g>
</svg>
