<?xml version="1.0" standalone="no"?>
<!DOCTYPE svg PUBLIC "-//W3C//DTD SVG 20010904//EN"
 "http://www.w3.org/TR/2001/REC-SVG-20010904/DTD/svg10.dtd">
<svg version="1.0" xmlns="http://www.w3.org/2000/svg"
 width="2500.000000pt" height="2500.000000pt" viewBox="0 0 2500.000000 2500.000000"
 preserveAspectRatio="xMidYMid meet">
<metadata>
Created by potrace 1.11, written by Peter Selinger 2001-2013
</metadata>
<g transform="translate(0.000000,2500.000000) scale(0.100000,-0.100000)"
fill="#000000" stroke="none">
<path d="M12600 20020 c-2062 -4 -2502 -8 -2535 -19 -100 -34 -172 -88 -224
-169 -30 -47 -405 -1037 -1544 -4077 -391 -1043 -570 -1519 -674 -1793 -63
-167 -113 -305 -111 -307 2 -2 48 -18 103 -35 157 -50 492 -197 572 -252 l73
-48 57 39 c32 21 81 50 108 64 77 38 598 260 810 344 105 42 221 91 258 110
334 167 826 299 1297 347 258 26 251 26 244 2 -3 -12 -72 -194 -151 -406 -80
-212 -221 -585 -313 -830 -262 -695 -305 -820 -289 -835 8 -7 68 -36 134 -65
86 -37 128 -50 150 -47 16 3 156 60 310 127 154 66 368 157 476 200 108 44
255 106 327 139 163 75 361 149 517 194 132 38 402 102 477 113 l48 6 -5 -28
c-156 -858 -286 -1380 -458 -1840 -215 -575 -262 -663 -792 -1508 -301 -481
-513 -802 -590 -896 -33 -41 -93 -118 -132 -170 -116 -155 -214 -261 -344
-370 -216 -181 -341 -251 -666 -374 l-203 -76 -172 -17 c-254 -25 -947 -25
-1104 0 -185 29 -317 82 -524 212 -199 124 -242 158 -342 272 -52 59 -141 158
-198 218 -105 111 -324 380 -506 621 -68 91 -213 323 -468 748 -203 339 -372
614 -375 611 -24 -25 -317 -1977 -440 -2940 -29 -227 -67 -662 -59 -671 3 -2
166 -15 364 -29 197 -14 413 -31 479 -40 66 -8 244 -26 395 -40 467 -42 899
-84 1040 -99 74 -8 223 -22 330 -31 107 -9 197 -18 199 -21 5 -4 3 -19 -78
-619 -27 -203 -52 -400 -56 -436 l-7 -66 164 -12 c89 -7 242 -21 338 -32 96
-11 296 -31 445 -44 287 -26 757 -71 1095 -104 540 -54 653 -61 945 -61 295 1
1457 27 1530 36 22 2 146 13 275 24 147 13 300 34 410 55 96 18 204 37 240 40
185 19 765 156 951 225 46 18 174 62 284 100 182 62 441 172 523 222 18 11 59
28 91 38 33 10 108 47 168 82 59 36 169 95 243 131 399 195 953 622 1356 1045
192 201 255 277 412 498 35 49 104 146 155 216 186 257 365 592 572 1068 164
379 243 592 341 925 117 395 130 456 150 695 32 394 19 629 -52 950 -96 430
-241 730 -526 1088 -375 469 -876 842 -1397 1039 l-133 50 -42 104 c-71 175
-134 294 -247 463 -502 752 -1229 1293 -2041 1520 -216 60 -467 105 -678 121
-47 3 -166 16 -265 27 -153 18 -241 21 -582 22 -435 1 -430 0 -377 53 19 19
32 24 52 19 41 -8 4341 -55 5360 -58 504 -2 595 0 606 13 13 13 119 188 954
1574 179 297 328 550 330 561 2 12 -2 25 -9 30 -7 4 -656 7 -1441 7 -786 -1
-1426 2 -1424 5 347 571 839 1393 989 1652 109 190 207 359 217 375 l19 30
-1457 0 c-801 0 -2580 -2 -3952 -5z m4761 -367 c12 -12 -132 -256 -829 -1408
l-170 -280 -1955 -5 c-1556 -4 -1959 -8 -1969 -18 -7 -7 -47 -103 -88 -215
l-75 -202 -780 3 c-429 2 -922 7 -1095 12 -231 6 -320 5 -333 -4 -18 -11 -42
-72 -454 -1141 -91 -236 -244 -630 -340 -874 -167 -424 -333 -866 -333 -885 0
-28 236 40 895 258 520 171 667 214 1074 315 239 60 518 117 527 108 4 -4
-252 -697 -259 -703 -1 -1 -54 -5 -117 -8 -200 -12 -436 -38 -605 -67 -418
-71 -767 -175 -1065 -316 -63 -30 -187 -83 -275 -118 -167 -66 -650 -270 -769
-324 -38 -17 -76 -31 -86 -31 -19 0 -257 103 -271 117 -11 11 66 230 286 813
228 605 418 1110 784 2085 690 1841 1081 2878 1085 2883 3 2 20 8 38 12 18 5
1638 7 3600 7 2800 -2 3570 -5 3579 -14z m-5545 -2489 l321 -6 -204 -542
c-113 -297 -236 -625 -275 -727 l-69 -186 -57 -7 c-377 -43 -1034 -207 -1640
-408 -200 -66 -365 -118 -367 -116 -2 1 19 59 46 128 115 291 598 1539 720
1859 l9 23 598 -6 c328 -3 741 -9 918 -12z m1251 -1759 c26 -3 77 -7 113 -10
36 -3 126 -12 200 -20 74 -8 187 -19 250 -25 530 -51 1050 -247 1495 -563 396
-282 812 -745 995 -1107 l32 -63 -44 6 c-23 4 -113 13 -198 22 -85 8 -213 22
-285 30 -452 51 -1001 44 -1605 -21 -275 -29 -522 -74 -820 -149 -78 -20 -144
-34 -147 -32 -2 3 -20 85 -39 183 -32 163 -40 186 -81 259 -78 137 -115 187
-208 284 -143 149 -316 269 -454 316 -108 36 -280 73 -353 74 -22 1 -38 6 -38
13 0 11 298 789 305 796 16 16 710 21 882 7z m-1199 -1170 c105 -8 267 -47
335 -81 139 -70 295 -214 379 -349 53 -86 57 -98 87 -247 17 -85 31 -162 31
-171 0 -9 -13 -18 -32 -22 -18 -4 -269 -85 -558 -180 -554 -183 -792 -255
-845 -255 l-32 0 87 238 c48 130 160 419 247 642 88 223 163 413 166 423 5 12
14 16 29 13 13 -3 60 -8 106 -11z m2362 -1359 c152 -19 330 -66 410 -106 120
-60 243 -152 360 -270 95 -96 128 -136 188 -238 l74 -122 34 -168 c72 -345 78
-399 78 -627 -1 -240 0 -233 -110 -795 -129 -662 -226 -1009 -426 -1540 -144
-382 -159 -413 -237 -493 -82 -85 -199 -187 -407 -353 -300 -241 -555 -409
-789 -524 -77 -38 -185 -96 -240 -130 -55 -33 -125 -68 -155 -76 -30 -9 -77
-29 -105 -44 -117 -66 -352 -166 -515 -220 -96 -32 -220 -75 -275 -95 -207
-76 -762 -208 -970 -231 -33 -3 -141 -21 -240 -40 -111 -21 -269 -42 -415 -54
-129 -11 -257 -22 -285 -25 -59 -6 -747 -23 -1085 -27 l-234 -3 -94 120 c-112
144 -242 324 -242 336 0 5 93 9 208 9 259 0 631 21 817 46 63 9 487 170 614
234 152 76 269 154 416 277 155 129 298 279 410 428 49 66 114 149 144 185 70
83 320 463 616 935 396 632 515 836 617 1060 46 100 177 436 249 638 103 287
231 767 304 1137 25 129 59 302 76 384 16 82 37 203 46 268 15 104 20 119 38
123 119 27 923 28 1125 1z m-8153 -3728 c22 -35 77 -126 123 -203 46 -77 101
-165 124 -195 56 -77 361 -471 430 -555 93 -113 339 -367 504 -521 125 -116
181 -160 295 -231 249 -155 399 -212 677 -258 19 -3 36 -8 38 -9 1 -2 -12
-108 -30 -235 l-33 -232 -50 6 c-86 11 -117 14 -220 20 -55 4 -107 8 -115 10
-8 1 -51 6 -95 9 -44 4 -91 9 -105 11 -14 3 -173 18 -353 35 -181 17 -345 33
-365 35 -21 3 -120 12 -222 20 -167 14 -425 40 -490 50 -14 2 -61 7 -105 11
-44 3 -91 8 -105 9 -14 2 -78 6 -143 10 l-119 8 7 56 c3 31 8 67 10 81 2 14 6
45 9 70 4 36 39 298 61 465 8 58 35 252 60 425 13 96 27 198 31 225 24 193
135 945 139 945 2 0 20 -28 42 -62z m8027 -1525 c-10 -16 -82 -129 -159 -253
-207 -329 -425 -657 -483 -726 -28 -34 -91 -115 -140 -180 -162 -216 -261
-319 -478 -496 -185 -151 -398 -263 -734 -387 l-215 -79 -175 -16 c-629 -57
-1196 -37 -1457 50 -136 45 -288 120 -455 226 -222 141 -272 181 -374 299 -47
55 -124 140 -171 190 -81 85 -84 89 -57 89 16 0 227 5 469 10 611 14 1037 49
1329 110 55 11 143 25 195 31 213 24 769 153 989 230 48 17 170 59 272 94 230
78 292 103 505 203 94 44 191 87 216 96 25 9 88 42 140 72 52 31 155 86 229
123 155 77 311 170 455 269 55 39 104 70 109 71 4 1 0 -11 -10 -26z"/>
</g>
</svg>
