<?xml version="1.0" standalone="no"?>
<!DOCTYPE svg PUBLIC "-//W3C//DTD SVG 20010904//EN"
 "http://www.w3.org/TR/2001/REC-SVG-20010904/DTD/svg10.dtd">
<svg version="1.0" xmlns="http://www.w3.org/2000/svg"
 width="512.000000pt" height="512.000000pt" viewBox="0 0 512.000000 512.000000"
 preserveAspectRatio="xMidYMid meet">
<metadata>
Created by potrace 1.11, written by Peter Selinger 2001-2013
</metadata>
<g transform="translate(0.000000,512.000000) scale(0.100000,-0.100000)"
fill="#000000" stroke="none">
<path d="M2815 5105 c-225 -39 -426 -131 -590 -269 -70 -59 -151 -140 -173
-174 -13 -21 -20 -22 -65 -17 -28 4 -59 9 -71 11 -40 8 -221 5 -296 -5 -132
-18 -292 -70 -410 -134 -282 -153 -504 -421 -579 -698 -30 -111 -32 -125 -36
-244 -6 -217 50 -408 183 -610 56 -87 225 -255 313 -313 l66 -44 -8 -47 c-11
-73 -2 -208 20 -292 99 -382 483 -672 891 -673 87 0 161 10 246 32 l72 19 1
-702 2 -702 -173 0 c-115 0 -181 -4 -195 -12 -24 -12 -39 -51 -29 -76 4 -12
-3 -15 -32 -16 -52 -1 -116 -7 -194 -19 -117 -17 -148 -39 -85 -59 48 -16 65
-18 247 -37 257 -26 1234 -26 1450 0 19 3 62 7 95 10 104 10 195 31 195 45 0
18 -75 37 -185 48 -33 3 -67 7 -75 8 -8 2 -25 4 -37 4 -19 1 -23 7 -23 31 0
33 -30 69 -57 71 -10 0 -86 1 -170 2 -83 1 -154 4 -156 7 -3 3 -8 432 -11 954
l-6 948 59 -57 c266 -259 664 -333 995 -183 85 38 193 108 260 169 113 101
215 269 251 414 21 80 28 231 15 290 -5 22 -11 52 -13 66 -10 52 -68 181 -113
250 -25 39 -77 102 -115 140 -65 65 -195 160 -247 180 l-23 9 19 28 c36 50 81
143 107 219 131 378 30 779 -270 1078 -185 185 -425 309 -672 349 -104 17
-285 17 -378 1z"/>
</g>
</svg>
